<?xml version="1.0" encoding="UTF-8"?>
<!DOCTYPE svg PUBLIC "-//W3C//DTD SVG 1.1//EN" "http://www.w3.org/Graphics/SVG/1.1/DTD/svg11.dtd">
<svg xmlns="http://www.w3.org/2000/svg" version="1.1" width="218px" height="218px" style="shape-rendering:geometricPrecision; text-rendering:geometricPrecision; image-rendering:optimizeQuality; fill-rule:evenodd; clip-rule:evenodd" xmlns:xlink="http://www.w3.org/1999/xlink">
<g><path style="opacity:0.004" fill="#dbdbdb" d="M 36.5,-0.5 C 39.5,-0.5 42.5,-0.5 45.5,-0.5C 44.4264,0.884606 43.0931,2.05127 41.5,3C 41.7284,3.39877 42.0618,3.56544 42.5,3.5C 41.2946,4.68566 39.9613,4.68566 38.5,3.5C 39.5,1.16667 38.8333,0.5 36.5,1.5C 36.5,0.833333 36.5,0.166667 36.5,-0.5 Z"/></g>
<g><path style="opacity:0.004" fill="#bebebe" d="M 166.5,-0.5 C 167.833,-0.5 169.167,-0.5 170.5,-0.5C 170.5,-0.166667 170.5,0.166667 170.5,0.5C 168.577,3.21783 167.244,2.8845 166.5,-0.5 Z"/></g>
<g><path style="opacity:0.004" fill="#000000" d="M 170.5,0.5 C 170.5,0.166667 170.5,-0.166667 170.5,-0.5C 171.5,-0.5 172.5,-0.5 173.5,-0.5C 173.196,1.79568 172.196,2.12901 170.5,0.5 Z"/></g>
<g><path style="opacity:0.004" fill="#d9d9d9" d="M 173.5,-0.5 C 176.833,-0.5 180.167,-0.5 183.5,-0.5C 183.376,1.5816 182.376,3.0816 180.5,4C 181.737,4.23209 182.737,4.73209 183.5,5.5C 182.167,5.83333 182.167,6.16667 183.5,6.5C 184.167,6.5 184.5,6.16667 184.5,5.5C 184.833,5.5 185.167,5.5 185.5,5.5C 186.167,5.16667 186.833,4.83333 187.5,4.5C 187.833,5.83333 188.167,5.83333 188.5,4.5C 189.338,4.84171 189.672,5.50838 189.5,6.5C 188.833,6.5 188.5,6.83333 188.5,7.5C 187.883,7.38929 187.383,7.05596 187,6.5C 186.033,7.67764 185.533,9.01098 185.5,10.5C 184.167,9.5 182.833,8.5 181.5,7.5C 180.914,7.70931 180.414,8.04265 180,8.5C 179.879,6.27294 179.046,4.43961 177.5,3C 179.929,2.5488 180.096,1.71547 178,0.5C 177.085,1.32791 176.419,2.32791 176,3.5C 175.667,2.83333 175.333,2.16667 175,1.5C 173.887,2.30501 172.721,2.97168 171.5,3.5C 170.89,2.60895 170.557,1.60895 170.5,0.5C 172.196,2.12901 173.196,1.79568 173.5,-0.5 Z"/></g>
<g><path style="opacity:0.004" fill="#000000" d="M 38.5,3.5 C 37.2905,3.06795 36.2905,2.40128 35.5,1.5C 35.8333,1.5 36.1667,1.5 36.5,1.5C 38.8333,0.5 39.5,1.16667 38.5,3.5 Z"/></g>
<g><path style="opacity:0.004" fill="#0e0e0e" d="M 31.5,1.5 C 31.5,2.16667 31.5,2.83333 31.5,3.5C 30.1667,4.16667 30.1667,4.83333 31.5,5.5C 30.6522,6.62495 29.6522,6.62495 28.5,5.5C 28.5,4.83333 28.1667,4.5 27.5,4.5C 27.5,3.83333 27.5,3.16667 27.5,2.5C 28.9587,2.56745 30.2921,2.23411 31.5,1.5 Z"/></g>
<g><path style="opacity:0.008" fill="#6d6d6d" d="M 45.5,-0.5 C 48.8333,-0.5 52.1667,-0.5 55.5,-0.5C 55.9175,0.221579 56.5842,0.721579 57.5,1C 55.7183,1.8141 54.2183,2.98077 53,4.5C 52.9152,2.91538 52.7486,1.58205 52.5,0.5C 51.1667,1.5 49.8333,2.5 48.5,3.5C 47.8076,2.97473 47.3076,2.30806 47,1.5C 45.951,3.10661 44.451,3.77328 42.5,3.5C 42.0618,3.56544 41.7284,3.39877 41.5,3C 43.0931,2.05127 44.4264,0.884606 45.5,-0.5 Z"/></g>
<g><path style="opacity:0.024" fill="#222222" d="M 137.5,-0.5 C 147.167,-0.5 156.833,-0.5 166.5,-0.5C 167.244,2.8845 168.577,3.21783 170.5,0.5C 170.557,1.60895 170.89,2.60895 171.5,3.5C 170.559,6.12509 169.393,6.12509 168,3.5C 166.086,4.67598 166.252,5.67598 168.5,6.5C 165.919,8.17095 166.252,8.67095 169.5,8C 170.931,7.53476 172.097,6.70143 173,5.5C 175.033,7.34973 175.033,8.0164 173,7.5C 173.148,8.82497 172.982,9.99164 172.5,11C 173.308,11.3076 173.975,11.8076 174.5,12.5C 173.359,13.4255 173.359,14.2588 174.5,15C 176.985,17.2104 178.818,16.7104 180,13.5C 180.667,14.8333 181.333,14.8333 182,13.5C 182.5,14 183,14.5 183.5,15C 182.044,15.4226 181.544,16.2559 182,17.5C 183.113,16.2889 184.28,16.2889 185.5,17.5C 186.354,18.9479 187.354,20.2813 188.5,21.5C 187.5,22.1667 186.5,22.8333 185.5,23.5C 185.846,24.6956 186.346,24.6956 187,23.5C 187.284,25.8856 188.284,26.5523 190,25.5C 192.55,27.4949 193.05,29.8283 191.5,32.5C 189.655,32.86 187.655,32.86 185.5,32.5C 189.361,31.4024 189.361,30.5691 185.5,30C 184.809,28.9326 184.309,27.7659 184,26.5C 182.667,26.5 181.333,26.5 180,26.5C 179.837,28.3867 180.671,29.8867 182.5,31C 181.5,31.6667 180.5,31.6667 179.5,31C 178.833,29 177.5,27.6667 175.5,27C 176.167,26.6667 176.833,26.3333 177.5,26C 177.645,24.0843 177.145,22.251 176,20.5C 175.683,22.3008 175.016,22.6341 174,21.5C 173.667,22.8333 173.333,24.1667 173,25.5C 171,24.1667 169.333,22.5 168,20.5C 167.667,21.1667 167.333,21.8333 167,22.5C 165.796,21.1414 164.296,20.1414 162.5,19.5C 163.09,18.2011 164.09,17.3678 165.5,17C 162.976,15.8743 160.642,14.5409 158.5,13C 159.167,12.6667 159.833,12.3333 160.5,12C 159.62,10.6439 159.286,9.14387 159.5,7.5C 157.61,7.2965 156.11,7.96317 155,9.5C 154.716,7.11441 153.716,6.44774 152,7.5C 150.416,6.13865 148.582,5.47199 146.5,5.5C 146.714,1.74287 145.714,1.0762 143.5,3.5C 141.591,2.65178 139.591,2.31845 137.5,2.5C 137.5,1.5 137.5,0.5 137.5,-0.5 Z"/></g>
<g><path style="opacity:0.004" fill="#e2e2e2" d="M 32.5,-0.5 C 32.8333,-0.5 33.1667,-0.5 33.5,-0.5C 33.8333,0.833333 34.1667,0.833333 34.5,-0.5C 34.8333,-0.5 35.1667,-0.5 35.5,-0.5C 35.5,0.166667 35.5,0.833333 35.5,1.5C 36.2905,2.40128 37.2905,3.06795 38.5,3.5C 38.2504,4.92206 37.417,5.92206 36,6.5C 32.7383,5.15904 32.2383,5.49237 34.5,7.5C 34.1667,7.83333 33.8333,8.16667 33.5,8.5C 32.5832,7.87277 31.5832,7.53944 30.5,7.5C 27.2152,8.08921 26.8819,9.25588 29.5,11C 28.5,11.3333 27.5,11.6667 26.5,12C 27.6956,12.6543 27.6956,13.1543 26.5,13.5C 24.5679,12.8545 23.4012,11.5212 23,9.5C 22.2208,12.0972 21.7208,12.0972 21.5,9.5C 21.2322,7.90097 21.5655,6.56764 22.5,5.5C 22.3453,8.85308 23.0119,9.18641 24.5,6.5C 25.1667,6.5 25.5,6.16667 25.5,5.5C 26.1667,4.5 26.8333,3.5 27.5,2.5C 27.5,3.16667 27.5,3.83333 27.5,4.5C 28.1667,4.5 28.5,4.83333 28.5,5.5C 29.6522,6.62495 30.6522,6.62495 31.5,5.5C 31.5,4.83333 31.5,4.16667 31.5,3.5C 31.5,2.83333 31.5,2.16667 31.5,1.5C 31.8333,0.833333 32.1667,0.166667 32.5,-0.5 Z"/></g>
<g><path style="opacity:0.008" fill="#505050" d="M 183.5,-0.5 C 183.833,-0.5 184.167,-0.5 184.5,-0.5C 185.598,0.396953 185.598,1.23029 184.5,2C 186.437,2.12162 187.77,2.95496 188.5,4.5C 188.167,4.5 187.833,4.5 187.5,4.5C 186.833,4.83333 186.167,5.16667 185.5,5.5C 185.167,4.16667 184.833,4.16667 184.5,5.5C 184.5,6.16667 184.167,6.5 183.5,6.5C 183.5,6.16667 183.5,5.83333 183.5,5.5C 182.737,4.73209 181.737,4.23209 180.5,4C 182.376,3.0816 183.376,1.5816 183.5,-0.5 Z"/></g>
<g><path style="opacity:0.004" fill="#222222" d="M 25.5,5.5 C 24.8333,5.5 24.5,5.83333 24.5,6.5C 23.0119,9.18641 22.3453,8.85308 22.5,5.5C 23.5,4.16667 24.5,4.16667 25.5,5.5 Z"/></g>
<g><path style="opacity:0.004" fill="#3d3d3d" d="M 194.5,6.5 C 194.167,6.5 193.833,6.5 193.5,6.5C 192.833,6.5 192.5,6.83333 192.5,7.5C 191.778,7.91753 191.278,8.5842 191,9.5C 190.601,9.27155 190.435,8.93822 190.5,8.5C 190.5,7.83333 190.167,7.5 189.5,7.5C 189.5,7.16667 189.5,6.83333 189.5,6.5C 190.458,6.0472 191.292,5.38053 192,4.5C 192.995,5.06594 193.828,5.73261 194.5,6.5 Z"/></g>
<g><path style="opacity:0.004" fill="#3b3b3b" d="M 20.5,9.5 C 19.8333,9.5 19.1667,9.5 18.5,9.5C 19.5477,7.06732 20.2144,7.06732 20.5,9.5 Z"/></g>
<g><path style="opacity:0.004" fill="#fefffe" d="M 15.5,10.5 C 14.8333,9.16667 14.8333,9.16667 15.5,10.5 Z"/></g>
<g><path style="opacity:0.004" fill="#191919" d="M 196.5,9.5 C 196.5,10.1667 196.833,10.5 197.5,10.5C 196.204,12.5792 194.538,14.2459 192.5,15.5C 192.565,15.9382 192.399,16.2716 192,16.5C 191.487,15.4734 190.987,14.4734 190.5,13.5C 191.265,12.3398 192.265,11.3398 193.5,10.5C 194.192,11.0253 194.692,11.6919 195,12.5C 195.232,11.2625 195.732,10.2625 196.5,9.5 Z"/></g>
<g><path style="opacity:0.004" fill="#cfcfcf" d="M 193.5,6.5 C 193.833,6.5 194.167,6.5 194.5,6.5C 195.167,7.5 195.833,8.5 196.5,9.5C 195.732,10.2625 195.232,11.2625 195,12.5C 194.692,11.6919 194.192,11.0253 193.5,10.5C 192.265,11.3398 191.265,12.3398 190.5,13.5C 189.524,12.1851 188.524,10.8518 187.5,9.5C 187.863,8.81654 188.196,8.14987 188.5,7.5C 188.833,7.5 189.167,7.5 189.5,7.5C 190.167,7.5 190.5,7.83333 190.5,8.5C 190.435,8.93822 190.601,9.27155 191,9.5C 191.278,8.5842 191.778,7.91753 192.5,7.5C 193.167,7.5 193.5,7.16667 193.5,6.5 Z"/></g>
<g><path style="opacity:0.008" fill="#6a6a6a" d="M 30.5,7.5 C 31.1534,8.80678 31.8201,10.1401 32.5,11.5C 31.9747,12.1924 31.3081,12.6924 30.5,13C 32.4335,13.7826 33.9335,13.2826 35,11.5C 35.3742,12.4162 35.8742,13.2496 36.5,14C 34.45,14.5255 32.6166,15.3589 31,16.5C 30.6667,16.1667 30.3333,15.8333 30,15.5C 30.0773,16.7376 29.9106,17.7376 29.5,18.5C 27.5764,18.8936 25.743,18.227 24,16.5C 22.9887,17.3366 21.8221,17.67 20.5,17.5C 19.9094,16.8485 19.2427,16.1818 18.5,15.5C 19.3256,14.549 19.4922,13.549 19,12.5C 17.7365,14.607 15.9032,15.607 13.5,15.5C 13.5,15.1667 13.5,14.8333 13.5,14.5C 14.7736,13.8106 14.7736,12.9772 13.5,12C 14.4158,11.7216 15.0825,11.2216 15.5,10.5C 16.391,9.89022 17.391,9.55688 18.5,9.5C 19.1667,10.8333 19.8333,10.8333 20.5,9.5C 20.8333,9.5 21.1667,9.5 21.5,9.5C 21.7208,12.0972 22.2208,12.0972 23,9.5C 23.4012,11.5212 24.5679,12.8545 26.5,13.5C 27.6956,13.1543 27.6956,12.6543 26.5,12C 27.5,11.6667 28.5,11.3333 29.5,11C 26.8819,9.25588 27.2152,8.08921 30.5,7.5 Z"/></g>
<g><path style="opacity:0.004" fill="#e1e1e1" d="M 20.5,17.5 C 19.7375,18.2679 18.7375,18.7679 17.5,19C 18.056,19.3826 18.3893,19.8826 18.5,20.5C 17.5,20.5 16.5,20.5 15.5,20.5C 14.8333,20.5 14.5,20.8333 14.5,21.5C 13.8333,21.8333 13.1667,22.1667 12.5,22.5C 13.512,24.1002 13.012,25.4335 11,26.5C 10.5357,25.9056 10.369,25.2389 10.5,24.5C 9.85706,26.0764 8.85706,27.4097 7.5,28.5C 6.16667,28.8333 6.16667,29.1667 7.5,29.5C 6.83333,30.5 6.16667,31.5 5.5,32.5C 3.80584,31.314 2.13918,31.4807 0.5,33C 2.93121,34.0924 2.93121,35.2591 0.5,36.5C 0.166667,36.5 -0.166667,36.5 -0.5,36.5C -0.5,34.1667 -0.5,31.8333 -0.5,29.5C 0.166667,29.5 0.5,29.1667 0.5,28.5C 0.833333,28.5 1.16667,28.5 1.5,28.5C 1.36912,29.3764 1.70245,30.0431 2.5,30.5C 6.14004,27.8455 5.8067,26.5122 1.5,26.5C 1.5,25.8333 1.16667,25.5 0.5,25.5C 1.0819,24.0689 1.91523,22.7356 3,21.5C 3.33333,22.5 3.66667,23.5 4,24.5C 4.49351,22.8659 4.66018,21.1992 4.5,19.5C 5.5,19.5 6.5,19.5 7.5,19.5C 7.87952,20.1331 8.21285,20.7997 8.5,21.5C 9.38568,20.675 9.71901,19.675 9.5,18.5C 10.1667,18.5 10.5,18.1667 10.5,17.5C 11.609,17.5569 12.609,17.8902 13.5,18.5C 13.9175,17.7784 14.5842,17.2784 15.5,17C 14.5842,16.7216 13.9175,16.2216 13.5,15.5C 15.9032,15.607 17.7365,14.607 19,12.5C 19.4922,13.549 19.3256,14.549 18.5,15.5C 19.2427,16.1818 19.9094,16.8485 20.5,17.5 Z"/></g>
<g><path style="opacity:0.004" fill="#fefffe" d="M 13.5,14.5 C 12.5084,14.3284 11.8417,14.6618 11.5,15.5C 11.5,16.1667 11.1667,16.5 10.5,16.5C 10.1667,16.5 9.83333,16.5 9.5,16.5C 9.95774,13.6909 11.2911,13.0242 13.5,14.5 Z"/></g>
<g><path style="opacity:0.008" fill="#c7c7c7" d="M 197.5,10.5 C 199.054,11.693 200.721,12.8596 202.5,14C 201.944,14.3826 201.611,14.8826 201.5,15.5C 200.833,15.5 200.5,15.8333 200.5,16.5C 200.5,16.8333 200.5,17.1667 200.5,17.5C 200.591,19.6977 199.925,20.0311 198.5,18.5C 200.312,14.9044 199.646,14.0711 196.5,16C 197.654,16.9138 197.487,17.7471 196,18.5C 195.578,16.5743 194.411,15.5743 192.5,15.5C 194.538,14.2459 196.204,12.5792 197.5,10.5 Z"/></g>
<g><path style="opacity:0.004" fill="#000000" d="M 11.5,15.5 C 12.1667,15.5 12.8333,15.5 13.5,15.5C 13.9175,16.2216 14.5842,16.7216 15.5,17C 14.5842,17.2784 13.9175,17.7784 13.5,18.5C 12.609,17.8902 11.609,17.5569 10.5,17.5C 10.5,17.1667 10.5,16.8333 10.5,16.5C 11.1667,16.5 11.5,16.1667 11.5,15.5 Z"/></g>
<g><path style="opacity:0.004" fill="#000000" d="M 200.5,16.5 C 200.5,15.8333 200.833,15.5 201.5,15.5C 202.5,15.8333 203.167,16.5 203.5,17.5C 202.833,17.5 202.167,17.5 201.5,17.5C 201.5,16.8333 201.167,16.5 200.5,16.5 Z"/></g>
<g><path style="opacity:0.004" fill="#fefffe" d="M 9.5,16.5 C 9.5,17.1667 9.5,17.8333 9.5,18.5C 8.83333,18.5 8.16667,18.5 7.5,18.5C 7.83333,17.5 8.5,16.8333 9.5,16.5 Z"/></g>
<g><path style="opacity:0.004" fill="#fefffe" d="M 204.5,16.5 C 205.833,17.1667 205.833,17.1667 204.5,16.5 Z"/></g>
<g><path style="opacity:0.004" fill="#000000" d="M 7.5,19.5 C 7.5,19.1667 7.5,18.8333 7.5,18.5C 8.16667,18.5 8.83333,18.5 9.5,18.5C 9.71901,19.675 9.38568,20.675 8.5,21.5C 8.21285,20.7997 7.87952,20.1331 7.5,19.5 Z"/></g>
<g><path style="opacity:0.016" fill="#333333" d="M 55.5,-0.5 C 59.1667,-0.5 62.8333,-0.5 66.5,-0.5C 66.0825,0.221579 65.4158,0.721579 64.5,1C 64.8333,1.33333 65.1667,1.66667 65.5,2C 64.8971,3.82541 64.2304,5.65874 63.5,7.5C 61.8988,6.83458 60.3988,6.50125 59,6.5C 58.6924,7.30806 58.1924,7.97473 57.5,8.5C 57.7036,7.47058 57.2036,6.47058 56,5.5C 55.5291,7.24635 54.8624,8.91302 54,10.5C 52.5747,11.0792 50.908,11.0792 49,10.5C 48.8333,10.8333 48.6667,11.1667 48.5,11.5C 49.376,12.2508 50.376,12.7508 51.5,13C 48.8333,13.3333 46.1667,13.6667 43.5,14C 41.1668,17.4267 40.0002,16.9267 40,12.5C 39.6827,14.3008 39.016,14.6341 38,13.5C 38.242,15.1381 39.0753,16.6381 40.5,18C 39.0477,19.5173 37.5477,19.684 36,18.5C 34.1739,19.0104 34.0072,19.8438 35.5,21C 34.5509,21.6172 33.7175,21.4506 33,20.5C 31.5604,22.0456 29.7271,22.879 27.5,23C 28.5171,24.0495 28.6838,25.2161 28,26.5C 27.0805,26.9302 26.2472,27.2635 25.5,27.5C 26.6853,28.853 28.0186,30.0197 29.5,31C 27.3752,30.2939 25.3752,29.7939 23.5,29.5C 24.0244,27.5469 25.0244,25.8802 26.5,24.5C 25.5022,21.9722 24.6689,21.9722 24,24.5C 23.6667,23.8333 23.3333,23.1667 23,22.5C 22.5,23.6667 21.6667,24.5 20.5,25C 21.5348,26.5069 21.3681,28.0069 20,29.5C 18.3163,28.8071 16.8163,28.4737 15.5,28.5C 16.1408,27.5178 16.8075,26.5178 17.5,25.5C 16.9747,24.8076 16.3081,24.3076 15.5,24C 16.938,23.7811 18.2713,23.2811 19.5,22.5C 19.1373,21.8165 18.8039,21.1499 18.5,20.5C 18.3893,19.8826 18.056,19.3826 17.5,19C 18.7375,18.7679 19.7375,18.2679 20.5,17.5C 21.8221,17.67 22.9887,17.3366 24,16.5C 25.743,18.227 27.5764,18.8936 29.5,18.5C 29.9106,17.7376 30.0773,16.7376 30,15.5C 30.3333,15.8333 30.6667,16.1667 31,16.5C 32.6166,15.3589 34.45,14.5255 36.5,14C 35.8742,13.2496 35.3742,12.4162 35,11.5C 33.9335,13.2826 32.4335,13.7826 30.5,13C 31.3081,12.6924 31.9747,12.1924 32.5,11.5C 31.8201,10.1401 31.1534,8.80678 30.5,7.5C 31.5832,7.53944 32.5832,7.87277 33.5,8.5C 33.8333,8.16667 34.1667,7.83333 34.5,7.5C 32.2383,5.49237 32.7383,5.15904 36,6.5C 37.417,5.92206 38.2504,4.92206 38.5,3.5C 39.9613,4.68566 41.2946,4.68566 42.5,3.5C 44.451,3.77328 45.951,3.10661 47,1.5C 47.3076,2.30806 47.8076,2.97473 48.5,3.5C 49.8333,2.5 51.1667,1.5 52.5,0.5C 52.7486,1.58205 52.9152,2.91538 53,4.5C 54.2183,2.98077 55.7183,1.8141 57.5,1C 56.5842,0.721579 55.9175,0.221579 55.5,-0.5 Z"/></g>
<g><path style="opacity:0.008" fill="#787878" d="M 200.5,17.5 C 200.833,17.5 201.167,17.5 201.5,17.5C 202.833,18.5 202.833,19.5 201.5,20.5C 200.232,21.787 200.565,22.787 202.5,23.5C 201.5,24.5 200.5,25.5 199.5,26.5C 199.167,25.1667 198.833,23.8333 198.5,22.5C 197.808,23.0253 197.308,23.6919 197,24.5C 196,23.1667 195,23.1667 194,24.5C 193.727,22.8988 193.227,21.3988 192.5,20C 194.586,19.6847 196.586,19.1847 198.5,18.5C 199.925,20.0311 200.591,19.6977 200.5,17.5 Z"/></g>
<g><path style="opacity:0.004" fill="#e3e3e3" d="M 201.5,17.5 C 202.167,17.5 202.833,17.5 203.5,17.5C 203.833,17.5 204.167,17.5 204.5,17.5C 206.169,19.5921 207.836,21.5921 209.5,23.5C 209.218,24.7777 208.551,25.7777 207.5,26.5C 207.167,26.5 206.833,26.5 206.5,26.5C 205.14,24.3086 203.474,22.3086 201.5,20.5C 202.833,19.5 202.833,18.5 201.5,17.5 Z"/></g>
<g><path style="opacity:0.004" fill="#e7e7e7" d="M 210.5,22.5 C 213.726,23.8767 214.059,25.5434 211.5,27.5C 210.448,27.6495 209.448,27.4828 208.5,27C 211.411,26.3023 212.077,24.8023 210.5,22.5 Z"/></g>
<g><path style="opacity:0.008" fill="#646464" d="M 15.5,20.5 C 16.5,20.5 17.5,20.5 18.5,20.5C 18.8039,21.1499 19.1373,21.8165 19.5,22.5C 18.2713,23.2811 16.938,23.7811 15.5,24C 16.3081,24.3076 16.9747,24.8076 17.5,25.5C 16.8075,26.5178 16.1408,27.5178 15.5,28.5C 13.3023,28.4088 12.9689,29.0755 14.5,30.5C 13.2502,30.5774 12.4169,31.244 12,32.5C 8.73825,31.159 8.23825,31.4924 10.5,33.5C 9.46881,34.7003 8.63547,36.0337 8,37.5C 7.09748,36.2986 5.93081,35.4652 4.5,35C 6.35878,34.3992 6.69211,33.5659 5.5,32.5C 6.16667,31.5 6.83333,30.5 7.5,29.5C 7.5,29.1667 7.5,28.8333 7.5,28.5C 8.85706,27.4097 9.85706,26.0764 10.5,24.5C 10.369,25.2389 10.5357,25.9056 11,26.5C 13.012,25.4335 13.512,24.1002 12.5,22.5C 13.1667,22.1667 13.8333,21.8333 14.5,21.5C 15.1667,21.5 15.5,21.1667 15.5,20.5 Z"/></g>
<g><path style="opacity:0.004" fill="#252525" d="M 6.5,23.5 C 9.38154,26.3879 9.04821,26.8879 5.5,25C 6.05596,24.6174 6.38929,24.1174 6.5,23.5 Z"/></g>
<g><path style="opacity:0.008" fill="#3f3f3f" d="M 188.5,7.5 C 188.196,8.14987 187.863,8.81654 187.5,9.5C 188.524,10.8518 189.524,12.1851 190.5,13.5C 190.987,14.4734 191.487,15.4734 192,16.5C 192.399,16.2716 192.565,15.9382 192.5,15.5C 194.411,15.5743 195.578,16.5743 196,18.5C 197.487,17.7471 197.654,16.9138 196.5,16C 199.646,14.0711 200.312,14.9044 198.5,18.5C 196.586,19.1847 194.586,19.6847 192.5,20C 193.227,21.3988 193.727,22.8988 194,24.5C 195,23.1667 196,23.1667 197,24.5C 197.308,23.6919 197.808,23.0253 198.5,22.5C 198.833,23.8333 199.167,25.1667 199.5,26.5C 200.5,25.5 201.5,24.5 202.5,23.5C 200.565,22.787 200.232,21.787 201.5,20.5C 203.474,22.3086 205.14,24.3086 206.5,26.5C 206.833,27.8333 207.167,27.8333 207.5,26.5C 208.551,25.7777 209.218,24.7777 209.5,23.5C 208.321,21.591 208.654,21.2576 210.5,22.5C 212.077,24.8023 211.411,26.3023 208.5,27C 209.448,27.4828 210.448,27.6495 211.5,27.5C 211.833,27.5 212.167,27.5 212.5,27.5C 211.432,28.4345 210.099,28.7678 208.5,28.5C 209.446,33.4014 210.446,33.7348 211.5,29.5C 212.172,30.9492 212.839,32.2825 213.5,33.5C 212.721,35.4199 212.387,37.2532 212.5,39C 214.139,40.5193 215.806,40.686 217.5,39.5C 217.5,45.8333 217.5,52.1667 217.5,58.5C 216.25,58.5774 215.417,59.244 215,60.5C 214.56,58.9238 213.727,57.5904 212.5,56.5C 215.121,54.1282 214.788,53.4616 211.5,54.5C 209.027,52.9019 209.027,51.4019 211.5,50C 210.107,48.8289 209.273,47.3289 209,45.5C 207.933,44.8095 206.766,44.3095 205.5,44C 207.158,43.2747 207.658,42.108 207,40.5C 202.863,44.0039 203.03,46.8373 207.5,49C 207,49.5 206.5,50 206,50.5C 204.308,48.6414 202.808,46.6414 201.5,44.5C 202.025,43.8076 202.692,43.3076 203.5,43C 202.364,41.4702 201.364,40.1369 200.5,39C 201.167,38.6667 201.833,38.3333 202.5,38C 201.695,36.0283 200.361,34.5283 198.5,33.5C 200.021,33.1203 201.687,32.9536 203.5,33C 203.057,31.4815 203.724,30.3148 205.5,29.5C 203.401,27.1835 201.068,27.0168 198.5,29C 199.654,29.9138 199.487,30.7471 198,31.5C 193.48,27.1212 192.646,27.6212 195.5,33C 194.354,33.6449 193.354,34.4783 192.5,35.5C 191.614,34.675 191.281,33.675 191.5,32.5C 193.05,29.8283 192.55,27.4949 190,25.5C 188.284,26.5523 187.284,25.8856 187,23.5C 186.346,24.6956 185.846,24.6956 185.5,23.5C 186.5,22.8333 187.5,22.1667 188.5,21.5C 187.354,20.2813 186.354,18.9479 185.5,17.5C 184.28,16.2889 183.113,16.2889 182,17.5C 181.544,16.2559 182.044,15.4226 183.5,15C 183,14.5 182.5,14 182,13.5C 181.333,14.8333 180.667,14.8333 180,13.5C 178.818,16.7104 176.985,17.2104 174.5,15C 173.359,14.2588 173.359,13.4255 174.5,12.5C 173.975,11.8076 173.308,11.3076 172.5,11C 172.982,9.99164 173.148,8.82497 173,7.5C 175.033,8.0164 175.033,7.34973 173,5.5C 172.097,6.70143 170.931,7.53476 169.5,8C 166.252,8.67095 165.919,8.17095 168.5,6.5C 166.252,5.67598 166.086,4.67598 168,3.5C 169.393,6.12509 170.559,6.12509 171.5,3.5C 172.721,2.97168 173.887,2.30501 175,1.5C 175.333,2.16667 175.667,2.83333 176,3.5C 176.419,2.32791 177.085,1.32791 178,0.5C 180.096,1.71547 179.929,2.5488 177.5,3C 179.046,4.43961 179.879,6.27294 180,8.5C 180.414,8.04265 180.914,7.70931 181.5,7.5C 182.833,8.5 184.167,9.5 185.5,10.5C 185.533,9.01098 186.033,7.67764 187,6.5C 187.383,7.05596 187.883,7.38929 188.5,7.5 Z"/></g>
<g><path style="opacity:0.008" fill="#545454" d="M -0.5,25.5 C -0.166667,25.5 0.166667,25.5 0.5,25.5C 1.16667,25.5 1.5,25.8333 1.5,26.5C 5.8067,26.5122 6.14004,27.8455 2.5,30.5C 1.70245,30.0431 1.36912,29.3764 1.5,28.5C 1.16667,27.1667 0.833333,27.1667 0.5,28.5C 0.5,29.1667 0.166667,29.5 -0.5,29.5C -0.5,28.1667 -0.5,26.8333 -0.5,25.5 Z"/></g>
<g><path style="opacity:0.004" fill="#e9e9e9" d="M 212.5,27.5 C 214.373,26.9109 216.04,27.5776 217.5,29.5C 217.5,30.5 217.5,31.5 217.5,32.5C 215.901,32.2322 214.568,32.5655 213.5,33.5C 212.839,32.2825 212.172,30.9492 211.5,29.5C 210.446,33.7348 209.446,33.4014 208.5,28.5C 210.099,28.7678 211.432,28.4345 212.5,27.5 Z"/></g>
<g><path style="opacity:0.004" fill="#000000" d="M 213.5,33.5 C 214.568,32.5655 215.901,32.2322 217.5,32.5C 217.5,32.8333 217.5,33.1667 217.5,33.5C 216.167,33.5 215.5,34.1667 215.5,35.5C 214.833,34.8333 214.167,34.1667 213.5,33.5 Z"/></g>
<g><path style="opacity:0.004" fill="#e0e0e0" d="M 213.5,33.5 C 214.167,34.1667 214.833,34.8333 215.5,35.5C 214.34,37.2027 215.007,37.8693 217.5,37.5C 217.5,38.1667 217.5,38.8333 217.5,39.5C 215.806,40.686 214.139,40.5193 212.5,39C 212.387,37.2532 212.721,35.4199 213.5,33.5 Z"/></g>
<g><path style="opacity:0.004" fill="#cdcdcd" d="M 217.5,33.5 C 217.5,34.5 217.5,35.5 217.5,36.5C 216.833,36.1667 216.167,35.8333 215.5,35.5C 215.5,34.1667 216.167,33.5 217.5,33.5 Z"/></g>
<g><path style="opacity:0.004" fill="#000000" d="M 215.5,35.5 C 216.167,35.8333 216.833,36.1667 217.5,36.5C 217.5,36.8333 217.5,37.1667 217.5,37.5C 215.007,37.8693 214.34,37.2027 215.5,35.5 Z"/></g>
<g><path style="opacity:0.008" fill="#a8a8a8" d="M -0.5,39.5 C -0.5,38.8333 -0.5,38.1667 -0.5,37.5C -0.166667,37.5 0.166667,37.5 0.5,37.5C 1.58317,37.4606 2.58317,37.1272 3.5,36.5C 4.2418,38.3497 5.2418,39.0164 6.5,38.5C 6.19238,39.3081 5.69238,39.9747 5,40.5C 3.43446,41.0606 2.10113,40.3939 1,38.5C 0.617425,39.056 0.117425,39.3893 -0.5,39.5 Z"/></g>
<g><path style="opacity:0.016" fill="#393939" d="M 14.5,30.5 C 15.5,30.5 16.5,30.5 17.5,30.5C 18.3845,34.4896 17.0511,37.3229 13.5,39C 15.9468,40.2289 16.1135,41.7289 14,43.5C 13.586,43.0426 13.086,42.7093 12.5,42.5C 10.9716,43.8613 9.30494,45.028 7.5,46C 13.1121,44.623 13.7787,45.7897 9.5,49.5C 7.99913,48.2485 6.33246,47.2485 4.5,46.5C 3.69194,46.8076 3.02527,47.3076 2.5,48C 3.62261,49.0437 4.95594,49.7104 6.5,50C 3.45574,50.3589 3.12241,51.0255 5.5,52C 3.31095,52.677 2.97762,53.8437 4.5,55.5C 3.33492,56.5836 2.00158,57.4169 0.5,58C 0.833333,59 1.16667,60 1.5,61C 0.955796,61.7172 0.28913,62.2172 -0.5,62.5C -0.5,54.8333 -0.5,47.1667 -0.5,39.5C 0.117425,39.3893 0.617425,39.056 1,38.5C 2.10113,40.3939 3.43446,41.0606 5,40.5C 5.69238,39.9747 6.19238,39.3081 6.5,38.5C 5.2418,39.0164 4.2418,38.3497 3.5,36.5C 2.58317,37.1272 1.58317,37.4606 0.5,37.5C 0.5,37.1667 0.5,36.8333 0.5,36.5C 2.93121,35.2591 2.93121,34.0924 0.5,33C 2.13918,31.4807 3.80584,31.314 5.5,32.5C 6.69211,33.5659 6.35878,34.3992 4.5,35C 5.93081,35.4652 7.09748,36.2986 8,37.5C 8.63547,36.0337 9.46881,34.7003 10.5,33.5C 8.23825,31.4924 8.73825,31.159 12,32.5C 12.4169,31.244 13.2502,30.5774 14.5,30.5 Z"/></g>
<g><path style="opacity:0.068" fill="#111111" d="M 66.5,-0.5 C 90.1667,-0.5 113.833,-0.5 137.5,-0.5C 137.5,0.5 137.5,1.5 137.5,2.5C 139.591,2.31845 141.591,2.65178 143.5,3.5C 145.714,1.0762 146.714,1.74287 146.5,5.5C 148.582,5.47199 150.416,6.13865 152,7.5C 153.716,6.44774 154.716,7.11441 155,9.5C 156.11,7.96317 157.61,7.2965 159.5,7.5C 159.286,9.14387 159.62,10.6439 160.5,12C 159.833,12.3333 159.167,12.6667 158.5,13C 160.642,14.5409 162.976,15.8743 165.5,17C 164.09,17.3678 163.09,18.2011 162.5,19.5C 164.296,20.1414 165.796,21.1414 167,22.5C 167.333,21.8333 167.667,21.1667 168,20.5C 169.333,22.5 171,24.1667 173,25.5C 173.333,24.1667 173.667,22.8333 174,21.5C 175.016,22.6341 175.683,22.3008 176,20.5C 177.145,22.251 177.645,24.0843 177.5,26C 176.833,26.3333 176.167,26.6667 175.5,27C 177.5,27.6667 178.833,29 179.5,31C 180.5,31.6667 181.5,31.6667 182.5,31C 180.671,29.8867 179.837,28.3867 180,26.5C 181.333,26.5 182.667,26.5 184,26.5C 184.309,27.7659 184.809,28.9326 185.5,30C 189.361,30.5691 189.361,31.4024 185.5,32.5C 187.655,32.86 189.655,32.86 191.5,32.5C 191.281,33.675 191.614,34.675 192.5,35.5C 193.354,34.4783 194.354,33.6449 195.5,33C 192.646,27.6212 193.48,27.1212 198,31.5C 199.487,30.7471 199.654,29.9138 198.5,29C 201.068,27.0168 203.401,27.1835 205.5,29.5C 203.724,30.3148 203.057,31.4815 203.5,33C 201.687,32.9536 200.021,33.1203 198.5,33.5C 200.361,34.5283 201.695,36.0283 202.5,38C 201.833,38.3333 201.167,38.6667 200.5,39C 201.364,40.1369 202.364,41.4702 203.5,43C 202.692,43.3076 202.025,43.8076 201.5,44.5C 202.808,46.6414 204.308,48.6414 206,50.5C 206.5,50 207,49.5 207.5,49C 203.03,46.8373 202.863,44.0039 207,40.5C 207.658,42.108 207.158,43.2747 205.5,44C 206.766,44.3095 207.933,44.8095 209,45.5C 209.273,47.3289 210.107,48.8289 211.5,50C 209.027,51.4019 209.027,52.9019 211.5,54.5C 214.788,53.4616 215.121,54.1282 212.5,56.5C 213.727,57.5904 214.56,58.9238 215,60.5C 215.417,59.244 216.25,58.5774 217.5,58.5C 217.5,103.167 217.5,147.833 217.5,192.5C 215.744,191.448 215.077,189.781 215.5,187.5C 214.127,187.343 212.793,187.51 211.5,188C 212.833,188.667 212.833,189.333 211.5,190C 212.448,190.483 213.448,190.649 214.5,190.5C 214.543,194.893 214.043,195.226 213,191.5C 212.008,194.664 210.175,197.164 207.5,199C 208.833,200.333 210.167,201.667 211.5,203C 210.423,203.47 209.423,203.303 208.5,202.5C 207.153,203.171 205.986,203.171 205,202.5C 204.667,203.167 204.333,203.833 204,204.5C 203.316,203.216 203.483,202.049 204.5,201C 203.687,199.115 202.353,198.449 200.5,199C 202.363,200.418 202.863,202.251 202,204.5C 200.15,202.038 198.983,202.538 198.5,206C 199.833,207 199.833,208 198.5,209C 200.929,209.451 201.096,210.285 199,211.5C 197.257,209.025 196.257,209.025 196,211.5C 196.75,212.126 197.584,212.626 198.5,213C 196.939,213.318 195.772,214.151 195,215.5C 193.663,214.235 192.163,213.735 190.5,214C 191.684,215.145 191.684,216.312 190.5,217.5C 186.833,217.5 183.167,217.5 179.5,217.5C 180.81,214.147 180.81,210.647 179.5,207C 184.735,207.341 185.235,206.174 181,203.5C 179.684,206.028 178.517,206.028 177.5,203.5C 179.599,201.183 181.932,201.017 184.5,203C 183.304,203.654 183.304,204.154 184.5,204.5C 186.003,203.41 186.336,202.243 185.5,201C 186.784,200.316 187.951,200.483 189,201.5C 190.914,200.324 190.748,199.324 188.5,198.5C 189.025,197.808 189.692,197.308 190.5,197C 190.153,195.431 189.986,193.598 190,191.5C 192.173,194.277 192.673,194.11 191.5,191C 192.167,190.667 192.833,190.333 193.5,190C 192.5,189 191.5,188 190.5,187C 191.517,185.951 191.684,184.784 191,183.5C 189.883,184.949 189.216,186.616 189,188.5C 188.355,187.354 187.522,186.354 186.5,185.5C 186.694,183.93 186.694,182.43 186.5,181C 187.593,179.635 188.926,179.301 190.5,180C 189.044,180.423 188.544,181.256 189,182.5C 189.414,182.043 189.914,181.709 190.5,181.5C 192.149,182.648 193.649,183.981 195,185.5C 196.188,184.437 196.688,183.103 196.5,181.5C 197.873,181.657 199.207,181.49 200.5,181C 199.833,180.667 199.167,180.333 198.5,180C 203.215,175.161 202.548,172.828 196.5,173C 196.546,170.898 197.546,168.898 199.5,167C 205.319,167.35 205.653,166.184 200.5,163.5C 200.667,163.167 200.833,162.833 201,162.5C 201.718,163.451 202.551,163.617 203.5,163C 202.549,162.282 202.383,161.449 203,160.5C 205.97,163.576 208.304,162.91 210,158.5C 210.813,160.436 211.313,162.436 211.5,164.5C 210.022,164.238 208.689,164.571 207.5,165.5C 207.846,166.696 208.346,166.696 209,165.5C 209.667,168.167 210.333,168.167 211,165.5C 211.667,166.167 212.333,166.833 213,167.5C 212.009,164.756 212.343,162.089 214,159.5C 215.087,161.932 215.587,161.598 215.5,158.5C 214.167,158.5 212.833,158.5 211.5,158.5C 213.512,155.921 214.845,153.254 215.5,150.5C 215.192,149.692 214.692,149.025 214,148.5C 212.667,150.5 211,152.167 209,153.5C 208.667,152.5 208.333,151.5 208,150.5C 207.647,152.074 206.98,153.741 206,155.5C 205.022,152.949 204.522,150.282 204.5,147.5C 204.667,147.167 204.833,146.833 205,146.5C 205.837,148.007 207.004,148.507 208.5,148C 208.835,146.836 208.835,145.503 208.5,144C 209.308,143.692 209.975,143.192 210.5,142.5C 209.471,142.704 208.471,142.204 207.5,141C 208.517,139.951 208.684,138.784 208,137.5C 207.667,137.833 207.333,138.167 207,138.5C 206.29,137.027 205.124,136.36 203.5,136.5C 215.294,89.3765 201.627,51.5432 162.5,23C 131.341,5.01667 99.0075,2.68333 65.5,16C 17.7337,42.0485 -0.432993,81.8818 11,135.5C 16.6518,153.945 26.4851,169.612 40.5,182.5C 39.9569,182.56 39.6236,182.893 39.5,183.5C 40.8334,184.62 41.3334,185.953 41,187.5C 38.3748,187.397 35.5414,187.064 32.5,186.5C 32.3601,184.876 33.0267,183.71 34.5,183C 31.5067,182.25 29.6734,183.417 29,186.5C 28.6667,185.833 28.3333,185.167 28,184.5C 27.5,186.333 26.3333,187.5 24.5,188C 26.4731,190.015 28.1397,189.848 29.5,187.5C 31.0016,188.083 32.3349,188.916 33.5,190C 31.8016,189.503 30.1349,189.67 28.5,190.5C 28.277,191.967 27.9437,193.467 27.5,195C 29.5089,193.328 32.0089,192.161 35,191.5C 36.9102,192.991 38.0769,194.491 38.5,196C 36.4311,196.324 36.0977,197.158 37.5,198.5C 35.9393,201.524 33.4393,203.191 30,203.5C 29.9341,207.81 30.6007,208.144 32,204.5C 33.881,205.354 35.7143,205.021 37.5,203.5C 40.6186,204.694 40.9519,206.194 38.5,208C 39.6667,208.5 40.5,209.333 41,210.5C 41.9147,209.672 42.5814,208.672 43,207.5C 44.487,208.253 44.6537,209.086 43.5,210C 45.9249,210.293 47.7582,211.459 49,213.5C 49.3333,212.833 49.6667,212.167 50,211.5C 53.4096,213.121 56.5762,215.121 59.5,217.5C 50.1667,217.5 40.8333,217.5 31.5,217.5C 32.9526,216.175 32.6192,215.342 30.5,215C 31.5536,213.612 31.7203,212.112 31,210.5C 30.1247,212.513 28.7913,212.513 27,210.5C 26.6667,211.167 26.3333,211.833 26,212.5C 25.556,209.389 24.2227,206.723 22,204.5C 21.2747,206.158 20.108,206.658 18.5,206C 21.0063,203.451 20.8396,200.951 18,198.5C 17.5172,199.448 17.3505,200.448 17.5,201.5C 14.4017,201.587 14.0684,201.087 16.5,200C 15.1092,198.35 13.6092,197.85 12,198.5C 11.3333,197.167 11.3333,195.833 12,194.5C 12.3333,195.167 12.6667,195.833 13,196.5C 15.0652,194.126 14.8985,191.96 12.5,190C 10.0953,189.719 10.0953,190.385 12.5,192C 11.0922,192.315 9.75891,191.982 8.5,191C 7.35945,190.259 7.35945,189.425 8.5,188.5C 7.67209,187.585 6.67209,186.919 5.5,186.5C 5.25144,187.582 5.08477,188.915 5,190.5C 4.07542,189.953 3.24208,189.287 2.5,188.5C 2.83333,187.167 3.16667,185.833 3.5,184.5C 6.95057,185.96 7.61724,185.627 5.5,183.5C 5.83333,182.167 6.16667,180.833 6.5,179.5C 5.99839,178.479 5.33172,178.312 4.5,179C 4.0698,179.92 3.73647,180.753 3.5,181.5C 0.651848,178.506 1.31852,176.506 5.5,175.5C 3.62566,172.481 1.62566,172.148 -0.5,174.5C -0.5,137.167 -0.5,99.8333 -0.5,62.5C 0.28913,62.2172 0.955796,61.7172 1.5,61C 1.16667,60 0.833333,59 0.5,58C 2.00158,57.4169 3.33492,56.5836 4.5,55.5C 2.97762,53.8437 3.31095,52.677 5.5,52C 3.12241,51.0255 3.45574,50.3589 6.5,50C 4.95594,49.7104 3.62261,49.0437 2.5,48C 3.02527,47.3076 3.69194,46.8076 4.5,46.5C 6.33246,47.2485 7.99913,48.2485 9.5,49.5C 13.7787,45.7897 13.1121,44.623 7.5,46C 9.30494,45.028 10.9716,43.8613 12.5,42.5C 13.086,42.7093 13.586,43.0426 14,43.5C 16.1135,41.7289 15.9468,40.2289 13.5,39C 17.0511,37.3229 18.3845,34.4896 17.5,30.5C 16.5,30.5 15.5,30.5 14.5,30.5C 12.9689,29.0755 13.3023,28.4088 15.5,28.5C 16.8163,28.4737 18.3163,28.8071 20,29.5C 21.3681,28.0069 21.5348,26.5069 20.5,25C 21.6667,24.5 22.5,23.6667 23,22.5C 23.3333,23.1667 23.6667,23.8333 24,24.5C 24.6689,21.9722 25.5022,21.9722 26.5,24.5C 25.0244,25.8802 24.0244,27.5469 23.5,29.5C 25.3752,29.7939 27.3752,30.2939 29.5,31C 28.0186,30.0197 26.6853,28.853 25.5,27.5C 26.2472,27.2635 27.0805,26.9302 28,26.5C 28.6838,25.2161 28.5171,24.0495 27.5,23C 29.7271,22.879 31.5604,22.0456 33,20.5C 33.7175,21.4506 34.5509,21.6172 35.5,21C 34.0072,19.8438 34.1739,19.0104 36,18.5C 37.5477,19.684 39.0477,19.5173 40.5,18C 39.0753,16.6381 38.242,15.1381 38,13.5C 39.016,14.6341 39.6827,14.3008 40,12.5C 40.0002,16.9267 41.1668,17.4267 43.5,14C 46.1667,13.6667 48.8333,13.3333 51.5,13C 50.376,12.7508 49.376,12.2508 48.5,11.5C 48.6667,11.1667 48.8333,10.8333 49,10.5C 50.908,11.0792 52.5747,11.0792 54,10.5C 54.8624,8.91302 55.5291,7.24635 56,5.5C 57.2036,6.47058 57.7036,7.47058 57.5,8.5C 58.1924,7.97473 58.6924,7.30806 59,6.5C 60.3988,6.50125 61.8988,6.83458 63.5,7.5C 64.2304,5.65874 64.8971,3.82541 65.5,2C 65.1667,1.66667 64.8333,1.33333 64.5,1C 65.4158,0.721579 66.0825,0.221579 66.5,-0.5 Z"/></g>
<g><path style="opacity:0.998" fill="#fbfbfc" d="M 203.5,136.5 C 192.158,172.008 168.491,194.841 132.5,205C 97.9538,212.796 67.2871,205.296 40.5,182.5C 26.4851,169.612 16.6518,153.945 11,135.5C -0.432993,81.8818 17.7337,42.0485 65.5,16C 99.0075,2.68333 131.341,5.01667 162.5,23C 201.627,51.5432 215.294,89.3765 203.5,136.5 Z"/></g>
<g><path style="opacity:0.999" fill="#f1f0f9" d="M 164.5,40.5 C 168.067,42.5566 171.234,45.2232 174,48.5C 178.119,53.2342 181.619,58.4009 184.5,64C 182.633,64.7112 181.133,64.2112 180,62.5C 177.149,63.5887 174.482,64.922 172,66.5C 170.667,65.8333 169.333,65.1667 168,64.5C 164.333,65.8333 160.667,67.1667 157,68.5C 153.132,67.3813 149.132,67.3813 145,68.5C 142.467,69.8724 139.8,70.8724 137,71.5C 133.842,71.6597 130.842,71.3264 128,70.5C 125.667,71.8333 123.333,73.1667 121,74.5C 120.692,73.6919 120.192,73.0253 119.5,72.5C 119.167,73.1667 118.833,73.8333 118.5,74.5C 116.504,73.3904 114.671,73.7237 113,75.5C 109.646,74.7898 106.313,74.1231 103,73.5C 102.558,75.6785 101.558,76.3452 100,75.5C 98.8964,76.3943 97.7298,77.3943 96.5,78.5C 72.6674,71.472 48.6674,70.8053 24.5,76.5C 26.7396,70.3504 29.7396,64.6837 33.5,59.5C 38.29,59.7716 43.1234,59.7716 48,59.5C 50.0429,57.4794 52.0429,57.1461 54,58.5C 54.4888,56.3956 55.6555,56.0622 57.5,57.5C 62.0947,56.7639 66.5947,55.7639 71,54.5C 72.3946,55.8146 73.3946,55.4812 74,53.5C 76.9798,53.5853 79.9798,53.9187 83,54.5C 86.6667,53.1667 90.3333,51.8333 94,50.5C 98.4758,49.9268 103.143,49.9268 108,50.5C 112.523,48.9662 117.189,47.6328 122,46.5C 124.68,46.9847 127.347,47.3181 130,47.5C 131.512,46.7433 132.846,45.7433 134,44.5C 134.333,45.1667 134.667,45.8333 135,46.5C 136.705,45.2367 138.372,44.9034 140,45.5C 140.333,44.8333 140.667,44.1667 141,43.5C 142.398,44.0509 143.732,44.3842 145,44.5C 149.016,43.2329 153.016,42.2329 157,41.5C 158.974,41.6472 160.974,41.9805 163,42.5C 163.278,41.5842 163.778,40.9175 164.5,40.5 Z"/></g>
<g><path style="opacity:0.999" fill="#e4e1f4" d="M 164.5,40.5 C 163.778,40.9175 163.278,41.5842 163,42.5C 160.974,41.9805 158.974,41.6472 157,41.5C 153.016,42.2329 149.016,43.2329 145,44.5C 143.732,44.3842 142.398,44.0509 141,43.5C 140.667,44.1667 140.333,44.8333 140,45.5C 138.372,44.9034 136.705,45.2367 135,46.5C 134.667,45.8333 134.333,45.1667 134,44.5C 132.846,45.7433 131.512,46.7433 130,47.5C 127.347,47.3181 124.68,46.9847 122,46.5C 117.189,47.6328 112.523,48.9662 108,50.5C 103.143,49.9268 98.4758,49.9268 94,50.5C 90.3333,51.8333 86.6667,53.1667 83,54.5C 79.9798,53.9187 76.9798,53.5853 74,53.5C 73.3946,55.4812 72.3946,55.8146 71,54.5C 66.5947,55.7639 62.0947,56.7639 57.5,57.5C 55.6555,56.0622 54.4888,56.3956 54,58.5C 52.0429,57.1461 50.0429,57.4794 48,59.5C 43.1234,59.7716 38.29,59.7716 33.5,59.5C 50.6077,33.8501 74.7744,20.1834 106,18.5C 128.437,18.473 147.937,25.8063 164.5,40.5 Z"/></g>
<g><path style="opacity:1" fill="#3213ea" d="M 96.5,78.5 C 107.457,81.8125 117.791,86.4791 127.5,92.5C 127.53,93.4972 127.03,94.1639 126,94.5C 91.0943,94.4057 55.9277,94.4057 20.5,94.5C 20.6891,88.2182 22.0224,82.2182 24.5,76.5C 48.6674,70.8053 72.6674,71.472 96.5,78.5 Z"/></g>
<g><path style="opacity:1" fill="#9429ea" d="M 195.5,97.5 C 195.665,100.85 195.498,104.183 195,107.5C 194.439,108.022 193.772,108.355 193,108.5C 162.95,108.754 134.116,108.421 106.5,107.5C 114.773,102.865 123.107,98.5315 131.5,94.5C 151.543,87.2444 172.21,84.4111 193.5,86C 194.864,89.6827 195.531,93.516 195.5,97.5 Z"/></g>
<g><path style="opacity:1" fill="#2a0ed1" d="M 127.5,92.5 C 128.833,93.1667 130.167,93.8333 131.5,94.5C 123.107,98.5315 114.773,102.865 106.5,107.5C 103.622,109.105 100.622,110.439 97.5,111.5C 71.0032,110.493 45.0032,110.493 19.5,111.5C 19.5,107.167 19.5,102.833 19.5,98.5C 19.2322,96.901 19.5655,95.5676 20.5,94.5C 55.9277,94.4057 91.0943,94.4057 126,94.5C 127.03,94.1639 127.53,93.4972 127.5,92.5 Z"/></g>
<g><path style="opacity:1" fill="#2b10bf" d="M 19.5,98.5 C 19.5,102.833 19.5,107.167 19.5,111.5C 45.0032,110.493 71.0032,110.493 97.5,111.5C 89.9774,115.587 81.9774,118.587 73.5,120.5C 56.0082,124.317 38.3416,125.317 20.5,123.5C 18.6007,115.073 18.2674,106.74 19.5,98.5 Z"/></g>
<g><path style="opacity:1" fill="#8625d4" d="M 195.5,97.5 C 196.948,105.468 196.614,113.468 194.5,121.5C 153.874,121.25 113.54,120.917 73.5,120.5C 81.9774,118.587 89.9774,115.587 97.5,111.5C 100.622,110.439 103.622,109.105 106.5,107.5C 134.116,108.421 162.95,108.754 193,108.5C 193.772,108.355 194.439,108.022 195,107.5C 195.498,104.183 195.665,100.85 195.5,97.5 Z"/></g>
<g><path style="opacity:1" fill="#7d22c6" d="M 73.5,120.5 C 113.54,120.917 153.874,121.25 194.5,121.5C 194.58,124.781 193.913,127.781 192.5,130.5C 135.833,130.5 79.1667,130.5 22.5,130.5C 21.0762,128.485 20.4095,126.152 20.5,123.5C 38.3416,125.317 56.0082,124.317 73.5,120.5 Z"/></g>
<g><path style="opacity:1" fill="#7620ba" d="M 22.5,130.5 C 79.1667,130.5 135.833,130.5 192.5,130.5C 192.483,132.565 192.15,134.565 191.5,136.5C 190.448,136.351 189.448,136.517 188.5,137C 189.888,137.889 189.722,138.389 188,138.5C 185.183,136.176 182.183,136.176 179,138.5C 178.586,138.043 178.086,137.709 177.5,137.5C 176.051,138.617 174.384,139.284 172.5,139.5C 124.107,139.154 76.1068,139.154 28.5,139.5C 25.1398,138.595 24.8065,137.095 27.5,135C 26.2068,134.51 24.8734,134.343 23.5,134.5C 22.5655,133.432 22.2322,132.099 22.5,130.5 Z"/></g>
<g><path style="opacity:1" fill="#6d1dab" d="M 23.5,134.5 C 24.8734,134.343 26.2068,134.51 27.5,135C 24.8065,137.095 25.1398,138.595 28.5,139.5C 76.1068,139.154 124.107,139.154 172.5,139.5C 174.384,139.284 176.051,138.617 177.5,137.5C 178.086,137.709 178.586,138.043 179,138.5C 182.183,136.176 185.183,136.176 188,138.5C 189.722,138.389 189.888,137.889 188.5,137C 189.448,136.517 190.448,136.351 191.5,136.5C 188.028,146.118 183.028,154.785 176.5,162.5C 173.406,161.787 170.406,160.787 167.5,159.5C 139.448,148.563 110.448,145.397 80.5,150C 69.1498,152.063 58.1498,155.229 47.5,159.5C 44.0896,160.193 41.4229,161.86 39.5,164.5C 32.0995,155.704 26.7662,145.704 23.5,134.5 Z"/></g>
<g><path style="opacity:1" fill="#ea06f3" d="M 167.5,159.5 C 127.611,160.368 87.6114,160.368 47.5,159.5C 58.1498,155.229 69.1498,152.063 80.5,150C 110.448,145.397 139.448,148.563 167.5,159.5 Z"/></g>
<g><path style="opacity:1" fill="#de07e6" d="M 47.5,159.5 C 87.6114,160.368 127.611,160.368 167.5,159.5C 170.406,160.787 173.406,161.787 176.5,162.5C 173.899,166.771 170.566,170.437 166.5,173.5C 127.162,173.014 87.8284,173.014 48.5,173.5C 45.1667,170.833 42.1667,167.833 39.5,164.5C 41.4229,161.86 44.0896,160.193 47.5,159.5 Z"/></g>
<g><path style="opacity:1" fill="#d40adb" d="M 166.5,173.5 C 162.546,177.812 157.88,181.145 152.5,183.5C 126.358,183.216 100.691,183.216 75.5,183.5C 69.9116,181.511 64.2449,180.845 58.5,181.5C 54.8536,179.183 51.5203,176.516 48.5,173.5C 87.8284,173.014 127.162,173.014 166.5,173.5 Z"/></g>
<g><path style="opacity:1" fill="#c719ce" d="M 58.5,181.5 C 64.2449,180.845 69.9116,181.511 75.5,183.5C 100.691,183.216 126.358,183.216 152.5,183.5C 141.985,190.508 130.318,194.675 117.5,196C 95.9092,198.185 76.2425,193.352 58.5,181.5 Z"/></g>
<g><path style="opacity:0.02" fill="#2e2e2e" d="M 31.5,217.5 C 28.5,217.5 25.5,217.5 22.5,217.5C 20.8113,216.696 19.1446,215.696 17.5,214.5C 17.3062,212.93 17.3062,211.43 17.5,210C 15.1253,207.593 14.1253,208.093 14.5,211.5C 10.9007,211.738 10.5673,210.738 13.5,208.5C 12.1152,207.449 11.1152,206.116 10.5,204.5C 9.16667,203.833 7.83333,203.167 6.5,202.5C 7.91077,200.983 7.7441,199.649 6,198.5C 5.28281,199.044 4.78281,199.711 4.5,200.5C 3.83333,200.833 3.16667,201.167 2.5,201.5C 2.5,199.5 1.5,198.5 -0.5,198.5C -0.5,190.5 -0.5,182.5 -0.5,174.5C 1.62566,172.148 3.62566,172.481 5.5,175.5C 1.31852,176.506 0.651848,178.506 3.5,181.5C 3.73647,180.753 4.0698,179.92 4.5,179C 5.33172,178.312 5.99839,178.479 6.5,179.5C 6.16667,180.833 5.83333,182.167 5.5,183.5C 7.61724,185.627 6.95057,185.96 3.5,184.5C 3.16667,185.833 2.83333,187.167 2.5,188.5C 3.24208,189.287 4.07542,189.953 5,190.5C 5.08477,188.915 5.25144,187.582 5.5,186.5C 6.67209,186.919 7.67209,187.585 8.5,188.5C 7.35945,189.425 7.35945,190.259 8.5,191C 9.75891,191.982 11.0922,192.315 12.5,192C 10.0953,190.385 10.0953,189.719 12.5,190C 14.8985,191.96 15.0652,194.126 13,196.5C 12.6667,195.833 12.3333,195.167 12,194.5C 11.3333,195.833 11.3333,197.167 12,198.5C 13.6092,197.85 15.1092,198.35 16.5,200C 14.0684,201.087 14.4017,201.587 17.5,201.5C 17.3505,200.448 17.5172,199.448 18,198.5C 20.8396,200.951 21.0063,203.451 18.5,206C 20.108,206.658 21.2747,206.158 22,204.5C 24.2227,206.723 25.556,209.389 26,212.5C 26.3333,211.833 26.6667,211.167 27,210.5C 28.7913,212.513 30.1247,212.513 31,210.5C 31.7203,212.112 31.5536,213.612 30.5,215C 32.6192,215.342 32.9526,216.175 31.5,217.5 Z"/></g>
<g><path style="opacity:0.008" fill="#9c9c9c" d="M 217.5,192.5 C 217.5,196.833 217.5,201.167 217.5,205.5C 214.829,202.999 212.829,203.666 211.5,207.5C 209.866,206.793 208.532,205.627 207.5,204C 208.056,203.617 208.389,203.117 208.5,202.5C 209.423,203.303 210.423,203.47 211.5,203C 210.167,201.667 208.833,200.333 207.5,199C 210.175,197.164 212.008,194.664 213,191.5C 214.043,195.226 214.543,194.893 214.5,190.5C 213.448,190.649 212.448,190.483 211.5,190C 212.833,189.333 212.833,188.667 211.5,188C 212.793,187.51 214.127,187.343 215.5,187.5C 215.077,189.781 215.744,191.448 217.5,192.5 Z"/></g>
<g><path style="opacity:0.006" fill="#000000" d="M 214.5,200.5 C 214.489,197.999 213.822,197.832 212.5,200C 212.728,200.399 213.062,200.565 213.5,200.5C 213.5,200.833 213.5,201.167 213.5,201.5C 212.503,201.53 211.836,201.03 211.5,200C 211.862,198.775 212.362,197.609 213,196.5C 214.008,196.982 215.175,197.148 216.5,197C 215.167,198 215.167,199 216.5,200C 215.906,200.464 215.239,200.631 214.5,200.5 Z"/></g>
<g><path style="opacity:0.004" fill="#f3f3f3" d="M -0.5,198.5 C 1.5,198.5 2.5,199.5 2.5,201.5C 1.77842,201.918 1.27842,202.584 1,203.5C 0.617425,202.944 0.117425,202.611 -0.5,202.5C -0.5,201.167 -0.5,199.833 -0.5,198.5 Z"/></g>
<g><path style="opacity:0.004" fill="#fefffe" d="M 214.5,200.5 C 214.167,200.5 213.833,200.5 213.5,200.5C 213.062,200.565 212.728,200.399 212.5,200C 213.822,197.832 214.489,197.999 214.5,200.5 Z"/></g>
<g><path style="opacity:0.11" fill="#070707" d="M 203.5,136.5 C 205.124,136.36 206.29,137.027 207,138.5C 207.333,138.167 207.667,137.833 208,137.5C 208.684,138.784 208.517,139.951 207.5,141C 208.471,142.204 209.471,142.704 210.5,142.5C 209.975,143.192 209.308,143.692 208.5,144C 208.835,145.503 208.835,146.836 208.5,148C 207.004,148.507 205.837,148.007 205,146.5C 204.833,146.833 204.667,147.167 204.5,147.5C 204.522,150.282 205.022,152.949 206,155.5C 206.98,153.741 207.647,152.074 208,150.5C 208.333,151.5 208.667,152.5 209,153.5C 211,152.167 212.667,150.5 214,148.5C 214.692,149.025 215.192,149.692 215.5,150.5C 214.845,153.254 213.512,155.921 211.5,158.5C 212.833,158.5 214.167,158.5 215.5,158.5C 215.587,161.598 215.087,161.932 214,159.5C 212.343,162.089 212.009,164.756 213,167.5C 212.333,166.833 211.667,166.167 211,165.5C 210.333,168.167 209.667,168.167 209,165.5C 208.346,166.696 207.846,166.696 207.5,165.5C 208.689,164.571 210.022,164.238 211.5,164.5C 211.313,162.436 210.813,160.436 210,158.5C 208.304,162.91 205.97,163.576 203,160.5C 202.383,161.449 202.549,162.282 203.5,163C 202.551,163.617 201.718,163.451 201,162.5C 200.833,162.833 200.667,163.167 200.5,163.5C 205.653,166.184 205.319,167.35 199.5,167C 197.546,168.898 196.546,170.898 196.5,173C 202.548,172.828 203.215,175.161 198.5,180C 199.167,180.333 199.833,180.667 200.5,181C 199.207,181.49 197.873,181.657 196.5,181.5C 196.688,183.103 196.188,184.437 195,185.5C 193.649,183.981 192.149,182.648 190.5,181.5C 189.914,181.709 189.414,182.043 189,182.5C 188.544,181.256 189.044,180.423 190.5,180C 188.926,179.301 187.593,179.635 186.5,181C 186.694,182.43 186.694,183.93 186.5,185.5C 187.522,186.354 188.355,187.354 189,188.5C 189.216,186.616 189.883,184.949 191,183.5C 191.684,184.784 191.517,185.951 190.5,187C 191.5,188 192.5,189 193.5,190C 192.833,190.333 192.167,190.667 191.5,191C 192.673,194.11 192.173,194.277 190,191.5C 189.986,193.598 190.153,195.431 190.5,197C 189.692,197.308 189.025,197.808 188.5,198.5C 190.748,199.324 190.914,200.324 189,201.5C 187.951,200.483 186.784,200.316 185.5,201C 186.336,202.243 186.003,203.41 184.5,204.5C 183.304,204.154 183.304,203.654 184.5,203C 181.932,201.017 179.599,201.183 177.5,203.5C 178.517,206.028 179.684,206.028 181,203.5C 185.235,206.174 184.735,207.341 179.5,207C 180.81,210.647 180.81,214.147 179.5,217.5C 139.5,217.5 99.5,217.5 59.5,217.5C 56.5762,215.121 53.4096,213.121 50,211.5C 49.6667,212.167 49.3333,212.833 49,213.5C 47.7582,211.459 45.9249,210.293 43.5,210C 44.6537,209.086 44.487,208.253 43,207.5C 42.5814,208.672 41.9147,209.672 41,210.5C 40.5,209.333 39.6667,208.5 38.5,208C 40.9519,206.194 40.6186,204.694 37.5,203.5C 35.7143,205.021 33.881,205.354 32,204.5C 30.6007,208.144 29.9341,207.81 30,203.5C 33.4393,203.191 35.9393,201.524 37.5,198.5C 36.0977,197.158 36.4311,196.324 38.5,196C 38.0769,194.491 36.9102,192.991 35,191.5C 32.0089,192.161 29.5089,193.328 27.5,195C 27.9437,193.467 28.277,191.967 28.5,190.5C 30.1349,189.67 31.8016,189.503 33.5,190C 32.3349,188.916 31.0016,188.083 29.5,187.5C 28.1397,189.848 26.4731,190.015 24.5,188C 26.3333,187.5 27.5,186.333 28,184.5C 28.3333,185.167 28.6667,185.833 29,186.5C 29.6734,183.417 31.5067,182.25 34.5,183C 33.0267,183.71 32.3601,184.876 32.5,186.5C 35.5414,187.064 38.3748,187.397 41,187.5C 41.3334,185.953 40.8334,184.62 39.5,183.5C 39.6236,182.893 39.9569,182.56 40.5,182.5C 67.2871,205.296 97.9538,212.796 132.5,205C 168.491,194.841 192.158,172.008 203.5,136.5 Z"/></g>
<g><path style="opacity:0.004" fill="#141414" d="M 217.5,205.5 C 217.5,205.833 217.5,206.167 217.5,206.5C 215.5,206.833 213.5,207.167 211.5,207.5C 212.829,203.666 214.829,202.999 217.5,205.5 Z"/></g>
<g><path style="opacity:0.004" fill="#272727" d="M 2.5,201.5 C 3.60523,203.3 2.93857,204.467 0.5,205C 2.37716,206.185 4.37716,207.185 6.5,208C 5.24402,208.417 4.57735,209.25 4.5,210.5C 4.16667,210.5 3.83333,210.5 3.5,210.5C 3.14363,208.81 2.14363,207.81 0.5,207.5C 0.5,206.833 0.166667,206.5 -0.5,206.5C -0.5,205.167 -0.5,203.833 -0.5,202.5C 0.117425,202.611 0.617425,202.944 1,203.5C 1.27842,202.584 1.77842,201.918 2.5,201.5 Z"/></g>
<g><path style="opacity:0.004" fill="#e8e8e8" d="M 4.5,200.5 C 4.63502,203 5.63502,205.5 7.5,208C 7.09464,208.945 6.42797,209.612 5.5,210C 6.30501,211.113 6.97168,212.279 7.5,213.5C 7.16667,213.5 6.83333,213.5 6.5,213.5C 5.16667,213.833 5.16667,214.167 6.5,214.5C 7.16667,215.167 7.83333,215.833 8.5,216.5C 8.5,216.833 8.5,217.167 8.5,217.5C 8.16667,217.5 7.83333,217.5 7.5,217.5C 5.27333,215.393 3.27333,213.06 1.5,210.5C 1.16667,207.833 0.833333,207.833 0.5,210.5C 0.166667,210.5 -0.166667,210.5 -0.5,210.5C -0.5,209.5 -0.5,208.5 -0.5,207.5C -0.166667,207.5 0.166667,207.5 0.5,207.5C 2.14363,207.81 3.14363,208.81 3.5,210.5C 3.83333,211.833 4.16667,211.833 4.5,210.5C 4.57735,209.25 5.24402,208.417 6.5,208C 4.37716,207.185 2.37716,206.185 0.5,205C 2.93857,204.467 3.60523,203.3 2.5,201.5C 3.16667,201.167 3.83333,200.833 4.5,200.5 Z"/></g>
<g><path style="opacity:0.004" fill="#c1c1c1" d="M 217.5,206.5 C 217.5,206.833 217.5,207.167 217.5,207.5C 216.732,208.263 216.232,209.263 216,210.5C 214.927,209.72 213.76,209.887 212.5,211C 213.993,212.156 213.826,212.99 212,213.5C 209.436,212.423 208.936,213.256 210.5,216C 209.263,216.232 208.263,216.732 207.5,217.5C 207.167,217.5 206.833,217.5 206.5,217.5C 206.167,216.167 205.833,216.167 205.5,217.5C 205.167,217.5 204.833,217.5 204.5,217.5C 204.709,216.078 205.209,214.745 206,213.5C 206.654,214.696 207.154,214.696 207.5,213.5C 207.145,212.478 206.478,211.811 205.5,211.5C 205.5,210.167 206.167,209.5 207.5,209.5C 208.167,209.5 208.5,209.167 208.5,208.5C 209.167,208.833 209.833,209.167 210.5,209.5C 211.167,209.5 211.5,209.167 211.5,208.5C 211.5,208.167 211.5,207.833 211.5,207.5C 213.5,207.167 215.5,206.833 217.5,206.5 Z"/></g>
<g><path style="opacity:0.008" fill="#5a5a5a" d="M 208.5,202.5 C 208.389,203.117 208.056,203.617 207.5,204C 208.532,205.627 209.866,206.793 211.5,207.5C 211.5,207.833 211.5,208.167 211.5,208.5C 210.833,208.5 210.5,208.833 210.5,209.5C 209.833,209.167 209.167,208.833 208.5,208.5C 207.833,208.5 207.5,208.833 207.5,209.5C 206.167,209.5 205.5,210.167 205.5,211.5C 206.478,211.811 207.145,212.478 207.5,213.5C 207.154,214.696 206.654,214.696 206,213.5C 205.209,214.745 204.709,216.078 204.5,217.5C 199.833,217.5 195.167,217.5 190.5,217.5C 191.684,216.312 191.684,215.145 190.5,214C 192.163,213.735 193.663,214.235 195,215.5C 195.772,214.151 196.939,213.318 198.5,213C 197.584,212.626 196.75,212.126 196,211.5C 196.257,209.025 197.257,209.025 199,211.5C 201.096,210.285 200.929,209.451 198.5,209C 199.833,208 199.833,207 198.5,206C 198.983,202.538 200.15,202.038 202,204.5C 202.863,202.251 202.363,200.418 200.5,199C 202.353,198.449 203.687,199.115 204.5,201C 203.483,202.049 203.316,203.216 204,204.5C 204.333,203.833 204.667,203.167 205,202.5C 205.986,203.171 207.153,203.171 208.5,202.5 Z"/></g>
<g><path style="opacity:0.004" fill="#fefffe" d="M 0.5,210.5 C 0.833333,210.5 1.16667,210.5 1.5,210.5C 1.31468,211.17 0.981346,211.17 0.5,210.5 Z"/></g>
<g><path style="opacity:0.008" fill="#626262" d="M 22.5,217.5 C 19.8333,217.5 17.1667,217.5 14.5,217.5C 14.5,216.833 14.5,216.167 14.5,215.5C 14.5875,212.402 14.0875,212.068 13,214.5C 11.3002,212.701 9.46689,212.368 7.5,213.5C 6.97168,212.279 6.30501,211.113 5.5,210C 6.42797,209.612 7.09464,208.945 7.5,208C 5.63502,205.5 4.63502,203 4.5,200.5C 4.78281,199.711 5.28281,199.044 6,198.5C 7.7441,199.649 7.91077,200.983 6.5,202.5C 7.83333,203.167 9.16667,203.833 10.5,204.5C 11.1152,206.116 12.1152,207.449 13.5,208.5C 10.5673,210.738 10.9007,211.738 14.5,211.5C 14.1253,208.093 15.1253,207.593 17.5,210C 17.3062,211.43 17.3062,212.93 17.5,214.5C 19.1446,215.696 20.8113,216.696 22.5,217.5 Z"/></g>
<g><path style="opacity:0.004" fill="#e7e7e7" d="M 14.5,215.5 C 13.1266,215.343 11.7932,215.51 10.5,216C 11.0944,216.464 11.7611,216.631 12.5,216.5C 12.5,216.833 12.5,217.167 12.5,217.5C 11.5,217.5 10.5,217.5 9.5,217.5C 9.5,217.167 9.5,216.833 9.5,216.5C 9.21781,215.222 8.55114,214.222 7.5,213.5C 9.46689,212.368 11.3002,212.701 13,214.5C 14.0875,212.068 14.5875,212.402 14.5,215.5 Z"/></g>
<g><path style="opacity:0.004" fill="#000000" d="M 6.5,213.5 C 6.83333,213.5 7.16667,213.5 7.5,213.5C 8.55114,214.222 9.21781,215.222 9.5,216.5C 9.16667,216.5 8.83333,216.5 8.5,216.5C 7.83333,215.833 7.16667,215.167 6.5,214.5C 6.5,214.167 6.5,213.833 6.5,213.5 Z"/></g>
<g><path style="opacity:0.004" fill="#000000" d="M 14.5,215.5 C 14.5,216.167 14.5,216.833 14.5,217.5C 14.1667,217.5 13.8333,217.5 13.5,217.5C 13.5,216.833 13.1667,216.5 12.5,216.5C 11.7611,216.631 11.0944,216.464 10.5,216C 11.7932,215.51 13.1266,215.343 14.5,215.5 Z"/></g>
</svg>
